#Comment line ignore any data following # character 
#Hierarchical Translation and Rotation (.htr) file 
[Header]	
#Header keywords are followed by a single value 
FileType HTR		#Single word string
DataType HTRS		#Translation followed by rotation and scale data
FileVersion 1		#integer
NumSegments 84		#integer
NumFrames 2		#integer
DataFrameRate 30		#integer, data frame rate in this file
EulerRotationOrder ZYX
CalibrationUnits mm
RotationUnits Degrees
GlobalAxisofGravity Y
BoneLengthAxis Y
ScaleFactor 1.00
[SegmentNames&Hierarchy]
#CHILD	PARENT
MASTER GLOBAL
root MASTER
chest root
L_mid_tent01 root
R_mid_tent01 root
spine01 root
Bip01_Neck chest
L_humerus chest
R_humerus chest
weapon_bone chest
Bip01_Head Bip01_Neck
eye_left_bone Bip01_Head
eye_right_bone Bip01_Head
L_forearm L_humerus
L_front_hand L_forearm
L_weapon_bone L_forearm
L_front_hand01_01 L_front_hand
L_front_hand02_01 L_front_hand
L_front_hand03_01 L_front_hand
L_front_hand01_02 L_front_hand01_01
L_front_hand02_02 L_front_hand02_01
L_front_hand03_02 L_front_hand03_01
R_forearm R_humerus
R_front_hand R_forearm
R_weapon_bone R_forearm
R_front_hand01_01 R_front_hand
R_front_hand02_01 R_front_hand
R_front_hand03_01 R_front_hand
R_front_hand01_02 R_front_hand01_01
R_front_hand02_02 R_front_hand02_01
R_front_hand03_02 R_front_hand03_01
null_rope01_connect L_mid_tent01
Rope1_Seg01 null_rope01_connect
Rope1_Seg02 Rope1_Seg01
Rope1_Seg03 Rope1_Seg02
Rope1_Seg04 Rope1_Seg03
Rope1_Seg05 Rope1_Seg04
Rope1_Seg06 Rope1_Seg05
Rope1_Seg07 Rope1_Seg06
Rope1_Seg09 Rope1_Seg07
L_mid_hand01 Rope1_Seg09
L_mid_hand02 Rope1_Seg09
L_mid_hand03 Rope1_Seg09
null_rope02_connect R_mid_tent01
Rope2_Seg01 null_rope02_connect
Rope2_Seg02 Rope2_Seg01
Rope2_Seg03 Rope2_Seg02
Rope2_Seg04 Rope2_Seg03
Rope2_Seg05 Rope2_Seg04
Rope2_Seg06 Rope2_Seg05
Rope2_Seg07 Rope2_Seg06
Rope2_Seg09 Rope2_Seg07
R_mid_hand01 Rope2_Seg09
R_mid_hand02 Rope2_Seg09
R_mid_hand03 Rope2_Seg09
spine02 spine01
spine03 spine02
pelvis spine03
null_rope03_connect pelvis
null_rope04_connect pelvis
Rope3_Seg01 null_rope03_connect
Rope3_Seg02 Rope3_Seg01
Rope3_Seg03 Rope3_Seg02
Rope3_Seg04 Rope3_Seg03
Rope3_Seg05 Rope3_Seg04
Rope3_Seg06 Rope3_Seg05
Rope3_Seg07 Rope3_Seg06
Rope3_Seg08 Rope3_Seg07
Rope3_Seg09 Rope3_Seg08
R_rear_hand01 Rope3_Seg09
R_rear_hand02 Rope3_Seg09
R_rear_hand03 Rope3_Seg09
Rope4_Seg01 null_rope04_connect
Rope4_Seg02 Rope4_Seg01
Rope4_Seg03 Rope4_Seg02
Rope4_Seg04 Rope4_Seg03
Rope4_Seg05 Rope4_Seg04
Rope4_Seg06 Rope4_Seg05
Rope4_Seg07 Rope4_Seg06
Rope4_Seg08 Rope4_Seg07
Rope4_Seg09 Rope4_Seg08
L_rear_hand01 Rope4_Seg09
L_rear_hand02 Rope4_Seg09
L_rear_hand03 Rope4_Seg09
[BasePosition]
#SegmentName Tx, Ty, Tz, Rx, Ry, Rz, BoneLength
MASTER 0.000000 0.000000 0.000000 -90.000000 0.000000 0.000000 10.000000 
root 0.000000 0.000000 0.000000 0.000000 0.000000 0.000000 10.000000 
chest 0.000000 0.000000 0.000000 0.000000 0.000000 0.000000 10.000000 
L_mid_tent01 0.000000 0.000000 0.000000 0.000000 0.000000 0.000000 10.000000 
R_mid_tent01 0.000000 0.000000 0.000000 0.000000 0.000000 0.000000 10.000000 
spine01 0.000000 0.000000 0.000000 0.000000 0.000000 0.000000 10.000000 
Bip01_Neck 0.000000 0.000000 0.000000 0.000000 0.000000 0.000000 10.000000 
L_humerus 0.000000 0.000000 0.000000 0.000000 0.000000 0.000000 10.000000 
R_humerus 0.000000 0.000000 0.000000 0.000000 0.000000 0.000000 10.000000 
weapon_bone 0.000000 0.000000 0.000000 0.000000 0.000000 0.000000 10.000000 
Bip01_Head 0.000000 0.000000 0.000000 0.000000 0.000000 0.000000 10.000000 
eye_left_bone 0.000000 0.000000 0.000000 0.000000 0.000000 0.000000 10.000000 
eye_right_bone 0.000000 0.000000 0.000000 0.000000 0.000000 0.000000 10.000000 
L_forearm 0.000000 0.000000 0.000000 0.000000 0.000000 0.000000 10.000000 
L_front_hand 0.000000 0.000000 0.000000 0.000000 0.000000 0.000000 10.000000 
L_weapon_bone 0.000000 0.000000 0.000000 0.000000 0.000000 0.000000 10.000000 
L_front_hand01_01 0.000000 0.000000 0.000000 0.000000 0.000000 0.000000 10.000000 
L_front_hand02_01 0.000000 0.000000 0.000000 0.000000 0.000000 0.000000 10.000000 
L_front_hand03_01 0.000000 0.000000 0.000000 0.000000 0.000000 0.000000 10.000000 
L_front_hand01_02 0.000000 0.000000 0.000000 0.000000 0.000000 0.000000 10.000000 
L_front_hand02_02 0.000000 0.000000 0.000000 0.000000 0.000000 0.000000 10.000000 
L_front_hand03_02 0.000000 0.000000 0.000000 0.000000 0.000000 0.000000 10.000000 
R_forearm 0.000000 0.000000 0.000000 0.000000 0.000000 0.000000 10.000000 
R_front_hand 0.000000 0.000000 0.000000 0.000000 0.000000 0.000000 10.000000 
R_weapon_bone 0.000000 0.000000 0.000000 0.000000 0.000000 0.000000 10.000000 
R_front_hand01_01 0.000000 0.000000 0.000000 0.000000 0.000000 0.000000 10.000000 
R_front_hand02_01 0.000000 0.000000 0.000000 0.000000 0.000000 0.000000 10.000000 
R_front_hand03_01 0.000000 0.000000 0.000000 0.000000 0.000000 0.000000 10.000000 
R_front_hand01_02 0.000000 0.000000 0.000000 0.000000 0.000000 0.000000 10.000000 
R_front_hand02_02 0.000000 0.000000 0.000000 0.000000 0.000000 0.000000 10.000000 
R_front_hand03_02 0.000000 0.000000 0.000000 0.000000 0.000000 0.000000 10.000000 
null_rope01_connect 0.000000 0.000000 0.000000 0.000000 0.000000 0.000000 10.000000 
Rope1_Seg01 0.000000 0.000000 0.000000 0.000000 0.000000 0.000000 10.000000 
Rope1_Seg02 0.000000 0.000000 0.000000 0.000000 0.000000 0.000000 10.000000 
Rope1_Seg03 0.000000 0.000000 0.000000 0.000000 0.000000 0.000000 10.000000 
Rope1_Seg04 0.000000 0.000000 0.000000 0.000000 0.000000 0.000000 10.000000 
Rope1_Seg05 0.000000 0.000000 0.000000 0.000000 0.000000 0.000000 10.000000 
Rope1_Seg06 0.000000 0.000000 0.000000 0.000000 0.000000 0.000000 10.000000 
Rope1_Seg07 0.000000 0.000000 0.000000 0.000000 0.000000 0.000000 10.000000 
Rope1_Seg09 0.000000 0.000000 0.000000 0.000000 0.000000 0.000000 10.000000 
L_mid_hand01 0.000000 0.000000 0.000000 0.000000 0.000000 0.000000 10.000000 
L_mid_hand02 0.000000 0.000000 0.000000 0.000000 0.000000 0.000000 10.000000 
L_mid_hand03 0.000000 0.000000 0.000000 0.000000 0.000000 0.000000 10.000000 
null_rope02_connect 0.000000 0.000000 0.000000 0.000000 0.000000 0.000000 10.000000 
Rope2_Seg01 0.000000 0.000000 0.000000 0.000000 0.000000 0.000000 10.000000 
Rope2_Seg02 0.000000 0.000000 0.000000 0.000000 0.000000 0.000000 10.000000 
Rope2_Seg03 0.000000 0.000000 0.000000 0.000000 0.000000 0.000000 10.000000 
Rope2_Seg04 0.000000 0.000000 0.000000 0.000000 0.000000 0.000000 10.000000 
Rope2_Seg05 0.000000 0.000000 0.000000 0.000000 0.000000 0.000000 10.000000 
Rope2_Seg06 0.000000 0.000000 0.000000 0.000000 0.000000 0.000000 10.000000 
Rope2_Seg07 0.000000 0.000000 0.000000 0.000000 0.000000 0.000000 10.000000 
Rope2_Seg09 0.000000 0.000000 0.000000 0.000000 0.000000 0.000000 10.000000 
R_mid_hand01 0.000000 0.000000 0.000000 0.000000 0.000000 0.000000 10.000000 
R_mid_hand02 0.000000 0.000000 0.000000 0.000000 0.000000 0.000000 10.000000 
R_mid_hand03 0.000000 0.000000 0.000000 0.000000 0.000000 0.000000 10.000000 
spine02 0.000000 0.000000 0.000000 0.000000 0.000000 0.000000 10.000000 
spine03 0.000000 0.000000 0.000000 0.000000 0.000000 0.000000 10.000000 
pelvis 0.000000 0.000000 0.000000 0.000000 0.000000 0.000000 10.000000 
null_rope03_connect 0.000000 0.000000 0.000000 0.000000 0.000000 0.000000 10.000000 
null_rope04_connect 0.000000 0.000000 0.000000 0.000000 0.000000 0.000000 10.000000 
Rope3_Seg01 0.000000 0.000000 0.000000 0.000000 0.000000 0.000000 10.000000 
Rope3_Seg02 0.000000 0.000000 0.000000 0.000000 0.000000 0.000000 10.000000 
Rope3_Seg03 0.000000 0.000000 0.000000 0.000000 0.000000 0.000000 10.000000 
Rope3_Seg04 0.000000 0.000000 0.000000 0.000000 0.000000 0.000000 10.000000 
Rope3_Seg05 0.000000 0.000000 0.000000 0.000000 0.000000 0.000000 10.000000 
Rope3_Seg06 0.000000 0.000000 0.000000 0.000000 0.000000 0.000000 10.000000 
Rope3_Seg07 0.000000 0.000000 0.000000 0.000000 0.000000 0.000000 10.000000 
Rope3_Seg08 0.000000 0.000000 0.000000 0.000000 0.000000 0.000000 10.000000 
Rope3_Seg09 0.000000 0.000000 0.000000 0.000000 0.000000 0.000000 10.000000 
R_rear_hand01 0.000000 0.000000 0.000000 0.000000 0.000000 0.000000 10.000000 
R_rear_hand02 0.000000 0.000000 0.000000 0.000000 0.000000 0.000000 10.000000 
R_rear_hand03 0.000000 0.000000 0.000000 0.000000 0.000000 0.000000 10.000000 
Rope4_Seg01 0.000000 0.000000 0.000000 0.000000 0.000000 0.000000 10.000000 
Rope4_Seg02 0.000000 0.000000 0.000000 0.000000 0.000000 0.000000 10.000000 
Rope4_Seg03 0.000000 0.000000 0.000000 0.000000 0.000000 0.000000 10.000000 
Rope4_Seg04 0.000000 0.000000 0.000000 0.000000 0.000000 0.000000 10.000000 
Rope4_Seg05 0.000000 0.000000 0.000000 0.000000 0.000000 0.000000 10.000000 
Rope4_Seg06 0.000000 0.000000 0.000000 0.000000 0.000000 0.000000 10.000000 
Rope4_Seg07 0.000000 0.000000 0.000000 0.000000 0.000000 0.000000 10.000000 
Rope4_Seg08 0.000000 0.000000 0.000000 0.000000 0.000000 0.000000 10.000000 
Rope4_Seg09 0.000000 0.000000 0.000000 0.000000 0.000000 0.000000 10.000000 
L_rear_hand01 0.000000 0.000000 0.000000 0.000000 0.000000 0.000000 10.000000 
L_rear_hand02 0.000000 0.000000 0.000000 0.000000 0.000000 0.000000 10.000000 
L_rear_hand03 0.000000 0.000000 0.000000 0.000000 0.000000 0.000000 10.000000 
#Beginning of Data. Separated by tabs
#Fr	Tx	Ty	Tz	Rx	Ry	Rz	SF
[MASTER]
10 0.000000 0.000000 0.000000 0.000000 -0.002347 -90.000000 0.000000
11 0.000000 0.000000 0.000000 0.000000 -0.002347 -90.000000 0.000000
[root]
10 -14.348896 -12.676676 721.887451 -92.405876 -10.452938 179.359543 722.141296
11 -14.348894 -20.225996 765.784363 -92.866066 -10.449453 179.359329 766.185852
[chest]
10 -84.512650 -34.090519 0.000000 12.833536 3.335667 178.785248 91.129311
11 -84.512650 -34.090519 0.000000 13.758707 3.327140 178.550842 91.129311
[L_mid_tent01]
10 27.299511 22.177458 -249.918259 -63.657536 18.686338 33.262241 252.381134
11 27.299511 22.177458 -249.918259 -63.657536 18.686338 33.262241 252.381134
[R_mid_tent01]
10 23.228794 24.509907 226.238495 -131.259216 -15.836094 39.582561 228.744751
11 23.228794 24.509907 226.238495 -131.259216 -15.836094 39.582561 228.744751
[spine01]
10 -0.361383 -0.195265 0.000000 0.001845 0.001451 13.654368 0.410763
11 -0.361383 -0.195265 0.000000 0.001845 0.001451 13.654367 0.410763
[Bip01_Neck]
10 165.484543 71.581718 0.000119 176.643677 -1.657967 43.431911 180.302734
11 165.484543 71.581718 0.000119 176.643677 -1.657967 43.431911 180.302734
[L_humerus]
10 -13.983130 -135.272980 -120.471481 175.142487 10.566991 -109.828369 181.680161
11 -13.983130 -135.272980 -120.471481 176.962479 6.614486 -108.956955 181.680161
[R_humerus]
10 -13.983309 -135.273102 125.287651 -167.848541 -3.665081 -124.358803 184.909012
11 -13.983309 -135.273102 125.287651 -170.142807 -0.722345 -123.541924 184.909012
[weapon_bone]
10 235.964890 -300.705902 0.000000 0.000000 -89.951546 -128.212341 382.234833
11 235.964890 -300.705902 0.000000 0.000000 -89.951546 -128.212341 382.234833
[Bip01_Head]
10 128.171936 128.412292 8.333417 1.938589 3.724703 -19.795942 181.623810
11 128.171936 128.412292 8.333417 1.938589 3.724703 -19.795940 181.623810
[eye_left_bone]
10 -24.626970 125.451866 -64.772606 0.000000 -90.000000 -99.840431 143.318359
11 -24.626970 125.451866 -64.772606 0.000000 -90.000000 -99.840431 143.318359
[eye_right_bone]
10 -24.626970 125.451866 64.327362 0.000000 -89.980217 80.156380 143.117676
11 -24.626970 125.451866 64.327362 0.000000 -89.980217 80.156387 143.117676
[L_forearm]
10 322.776093 0.000000 -0.000119 0.000391 -0.002314 -109.189560 322.776093
11 322.776093 0.000000 -0.000119 0.000385 -0.002315 -108.873734 322.776093
[L_front_hand]
10 241.149185 -0.042021 -3.300071 -118.779625 -1.834650 -27.423128 241.171753
11 241.149185 -0.042021 -3.300071 68.709877 -1.836998 -27.422148 241.171753
[L_weapon_bone]
10 156.183838 0.000000 0.000000 0.000014 0.000007 0.000001 156.183838
11 156.183838 0.000000 0.000000 0.000014 0.000007 0.000001 156.183838
[L_front_hand01_01]
10 86.095154 20.947098 -0.655860 -0.366594 -0.477154 75.385574 88.609184
11 86.095154 20.947098 -0.655860 -0.366594 -0.477154 75.385574 88.609184
[L_front_hand02_01]
10 86.935165 -11.437475 24.513514 154.399811 -59.883827 -61.369587 91.046425
11 86.935165 -11.437475 24.513514 154.399811 -59.883842 -61.369598 91.046425
[L_front_hand03_01]
10 86.637497 -14.123976 -20.424902 -153.913879 58.118130 -62.702892 90.126129
11 86.637497 -14.123976 -20.424902 -153.913849 58.118122 -62.702866 90.126129
[L_front_hand01_02]
10 71.020905 -0.000179 0.000030 0.000334 -0.002323 -106.379684 71.020905
11 71.020905 -0.000179 0.000030 0.000334 -0.002323 -106.379684 71.020905
[L_front_hand02_02]
10 71.020927 -0.000119 0.000060 0.000334 -0.002323 -106.379684 71.020927
11 71.020927 -0.000119 0.000060 0.000334 -0.002323 -106.379684 71.020927
[L_front_hand03_02]
10 71.020905 -0.000060 0.000060 0.000334 -0.002323 -106.379684 71.020905
11 71.020905 -0.000060 0.000060 0.000334 -0.002323 -106.379684 71.020905
[R_forearm]
10 322.776428 -0.000060 0.000030 0.203993 0.055414 -106.465912 322.776428
11 322.776428 -0.000060 0.000030 0.204129 0.054913 -106.184494 322.776428
[R_front_hand]
10 238.847015 -0.006795 2.210259 -38.660534 -10.644484 -26.312580 238.857239
11 238.847015 -0.006795 2.210259 46.835136 -10.643945 -26.312578 238.857239
[R_weapon_bone]
10 155.664093 0.002503 -0.000030 0.003487 0.001180 -90.988930 155.664078
11 155.664093 0.002503 -0.000030 0.003487 0.001180 -90.988930 155.664078
[R_front_hand01_01]
10 87.624611 14.231146 22.918642 -154.633499 -59.950626 61.746063 91.683487
11 87.624611 14.231146 22.918642 -154.633499 -59.950615 61.746044 91.683487
[R_front_hand02_01]
10 89.356956 14.367283 -19.491137 154.602661 58.302849 63.744389 92.579636
11 89.356956 14.367283 -19.491137 154.602676 58.302864 63.744389 92.579636
[R_front_hand03_01]
10 87.286232 -22.307278 -0.143439 0.162155 -0.423168 -75.767921 90.091743
11 87.286232 -22.307278 -0.143439 0.162155 -0.423168 -75.767921 90.091743
[R_front_hand01_02]
10 71.020905 0.000060 0.000119 0.002323 -0.000334 106.381714 71.020905
11 71.020905 0.000060 0.000119 0.002323 -0.000334 106.381714 71.020905
[R_front_hand02_02]
10 71.020844 -0.000030 -0.000119 0.002323 -0.000334 106.381714 71.020836
11 71.020844 -0.000030 -0.000119 0.002323 -0.000334 106.381714 71.020836
[R_front_hand03_02]
10 71.020905 0.000000 0.000030 0.002323 -0.000334 106.381714 71.020905
11 71.020905 0.000000 0.000030 0.002323 -0.000334 106.381714 71.020905
[null_rope01_connect]
10 328.732483 0.000000 -0.000238 -166.896851 22.807045 67.577583 328.732483
11 328.732483 0.000000 -0.000238 -166.962631 22.381462 67.383591 328.732483
[Rope1_Seg01]
10 0.000000 0.000000 0.000000 107.418602 -0.836999 -71.860603 0.000000
11 0.000000 0.000000 0.000000 104.760033 3.120394 -72.197258 0.000000
[Rope1_Seg02]
10 139.999863 -0.000179 0.000000 -1.605908 0.550018 -3.953922 139.999863
11 139.999863 -0.000179 0.000000 -1.162676 0.856740 -3.509399 139.999863
[Rope1_Seg03]
10 139.999924 0.000060 -0.000060 -1.747025 0.985720 -5.278236 139.999924
11 139.999924 0.000060 -0.000060 -1.308053 1.367690 -4.793521 139.999924
[Rope1_Seg04]
10 139.999924 -0.000060 -0.000119 1.287094 5.202584 -1.786698 139.999924
11 139.999924 -0.000060 -0.000119 1.744537 5.910209 -0.968200 139.999924
[Rope1_Seg05]
10 139.999832 0.000119 -0.000060 -4.818987 -4.813004 -21.678345 139.999832
11 139.999832 0.000119 -0.000060 -4.425982 -5.243772 -24.572641 139.999832
[Rope1_Seg06]
10 139.999954 0.000119 -0.000060 7.113503 -12.177336 -47.826378 139.999954
11 139.999954 0.000119 -0.000060 7.308994 -10.936535 -43.350410 139.999954
[Rope1_Seg07]
10 139.999985 0.000060 0.000000 6.267093 -4.666680 -17.004383 139.999985
11 139.999985 0.000060 0.000000 5.328031 -4.138583 -14.596237 139.999985
[Rope1_Seg09]
10 121.602913 0.000119 -0.000089 -89.793175 -1.359789 0.847147 121.602913
11 121.602913 0.000119 -0.000089 -89.793175 -1.359789 0.847147 121.602913
[L_mid_hand01]
10 103.859421 1.038730 8.195221 109.056198 -40.604706 -13.201404 104.187431
11 103.859421 1.038730 8.195221 109.056198 -40.604706 -13.201399 104.187431
[L_mid_hand02]
10 105.572853 -4.139662 -10.864139 -146.713593 31.476528 -37.902313 106.211075
11 105.572853 -4.139662 -10.864139 -146.713593 31.476530 -37.902313 106.211075
[L_mid_hand03]
10 104.641464 17.579376 -3.913581 -14.267234 12.322318 43.898403 106.179977
11 104.641464 17.579376 -3.913581 -14.267233 12.322315 43.898396 106.179977
[null_rope02_connect]
10 328.732849 0.000179 -0.000119 -162.875443 -41.342793 108.441498 328.732849
11 328.732849 0.000179 -0.000119 -162.681137 -41.753960 108.156967 328.732849
[Rope2_Seg01]
10 -0.000038 -0.000114 0.000096 -50.309834 -13.330256 -115.570503 0.000154
11 -0.000038 -0.000114 0.000097 -48.944294 -9.321250 -115.541992 0.000155
[Rope2_Seg02]
10 139.999741 -0.000060 -0.000119 2.176821 3.471223 4.770359 139.999756
11 139.999741 -0.000060 -0.000119 2.108973 3.670594 4.861333 139.999756
[Rope2_Seg03]
10 140.000107 0.000030 0.000000 3.085073 5.509248 7.054116 140.000107
11 140.000107 0.000030 0.000000 2.890237 5.670568 7.024176 140.000107
[Rope2_Seg04]
10 139.999802 0.000000 -0.000060 2.813639 7.231009 6.934886 139.999802
11 139.999802 0.000000 -0.000060 2.509212 7.213609 6.696309 139.999802
[Rope2_Seg05]
10 139.999985 -0.000060 0.000119 6.335937 16.072620 19.517239 139.999985
11 139.999985 -0.000060 0.000119 5.143818 14.830589 17.693104 139.999985
[Rope2_Seg06]
10 139.999893 -0.000030 -0.000119 7.375229 26.594629 35.865631 139.999893
11 139.999893 -0.000030 -0.000119 6.337200 24.839861 33.821133 139.999893
[Rope2_Seg07]
10 139.999893 0.000060 -0.000060 -1.717929 10.805635 13.169399 139.999893
11 139.999893 0.000060 -0.000060 -1.568117 11.226085 14.068336 139.999893
[Rope2_Seg09]
10 121.338966 0.000089 -0.000060 33.793236 -1.359788 -0.847141 121.338966
11 121.338966 0.000089 -0.000060 33.793236 -1.359788 -0.847141 121.338966
[R_mid_hand01]
10 104.680779 11.144459 -10.335981 -37.204079 31.906813 37.576260 105.778534
11 104.680779 11.144459 -10.335981 -37.204067 31.906805 37.576260 105.778534
[R_mid_hand02]
10 104.070427 2.443552 8.231699 70.367462 -42.427391 14.067809 104.424065
11 104.070427 2.443552 8.231699 70.367462 -42.427387 14.067810 104.424065
[R_mid_hand03]
10 106.028137 -11.221827 -5.996406 -169.893616 12.226661 -47.211029 106.788818
11 106.028137 -11.221827 -5.996406 -169.893616 12.226661 -47.211018 106.788818
[spine02]
10 129.756927 0.001550 0.000119 -1.023899 -3.926965 6.770992 129.756927
11 129.756927 0.001550 0.000119 -1.023899 -3.926965 6.770993 129.756927
[spine03]
10 78.613846 0.087372 -4.898873 1.040681 4.146420 4.212376 78.766380
11 78.613846 0.087372 -4.898873 1.040681 4.146420 4.212376 78.766380
[pelvis]
10 169.435242 0.051022 0.000000 0.019518 -0.190233 -10.721435 169.435257
11 169.435242 0.051022 0.000000 0.019518 -0.190233 -10.721436 169.435257
[null_rope03_connect]
10 -1.257226 -2.466202 137.391083 157.306595 87.108353 63.908413 137.418976
11 -1.257226 -2.466202 137.391083 158.971817 86.659012 65.570686 137.418976
[null_rope04_connect]
10 -1.259640 -2.480268 -137.844437 157.306595 87.108353 63.908413 137.872513
11 -1.259640 -2.480268 -137.844437 158.971817 86.659012 65.570686 137.872513
[Rope3_Seg01]
10 0.000000 0.000000 0.000000 -136.501785 -18.970310 120.507324 0.000000
11 0.000000 0.000000 0.000000 -134.631699 -14.355318 120.041504 0.000000
[Rope3_Seg02]
10 139.999924 -0.000119 0.000060 5.078697 -12.450308 8.954824 139.999924
11 139.999924 -0.000119 0.000060 4.543846 -12.015486 8.930118 139.999924
[Rope3_Seg03]
10 139.999924 -0.000119 0.000119 4.203911 -10.986753 9.862813 139.999924
11 139.999924 -0.000119 0.000119 3.626828 -10.218750 9.141920 139.999924
[Rope3_Seg04]
10 139.999924 0.000119 0.000000 2.274855 -6.184178 6.684430 139.999924
11 139.999924 0.000119 0.000000 1.965252 -5.787636 5.882966 139.999924
[Rope3_Seg05]
10 139.999924 -0.000238 0.000060 2.665995 -11.161058 12.807245 139.999924
11 139.999924 -0.000238 0.000060 2.425335 -10.856517 12.743286 139.999924
[Rope3_Seg06]
10 139.999893 -0.000119 -0.000060 -1.466187 -19.282711 26.543934 139.999893
11 139.999893 -0.000119 -0.000060 -1.626247 -18.271975 25.911243 139.999893
[Rope3_Seg07]
10 139.999771 0.000060 -0.000119 -2.570589 -11.301008 16.692047 139.999771
11 139.999771 0.000060 -0.000119 -2.597621 -10.819969 16.109951 139.999771
[Rope3_Seg08]
10 139.999985 -0.000060 0.000000 -1.296968 -5.465678 7.650066 139.999985
11 139.999985 -0.000060 0.000000 -1.350705 -5.378644 7.547165 139.999985
[Rope3_Seg09]
10 90.185997 -0.000179 -0.000060 89.793228 -1.359877 -0.847183 90.185997
11 90.185997 -0.000179 -0.000060 89.793228 -1.359877 -0.847183 90.185997
[R_rear_hand01]
10 103.366196 -6.073594 -10.757982 -164.755127 19.627695 -40.352158 104.101845
11 103.366196 -6.073594 -10.757982 -164.755127 19.627703 -40.352169 104.101845
[R_rear_hand02]
10 100.509819 12.039542 -7.992327 -30.792652 24.782448 38.141541 101.543350
11 100.509819 12.039542 -7.992327 -30.792652 24.782450 38.141541 101.543350
[R_rear_hand03]
10 101.539970 5.215704 5.435467 82.448349 -41.048256 8.840378 101.819031
11 101.539970 5.215704 5.435467 82.448364 -41.048260 8.840381 101.819031
[Rope4_Seg01]
10 0.000010 0.000038 -0.000114 58.672501 -26.939003 58.184341 0.000121
11 0.000010 0.000038 -0.000114 60.693600 -27.213360 53.619793 0.000121
[Rope4_Seg02]
10 139.999985 0.000060 0.000119 -5.994632 3.594477 -11.701318 139.999985
11 139.999985 0.000060 0.000119 -6.616659 4.459867 -10.666841 139.999985
[Rope4_Seg03]
10 139.999924 0.000000 -0.000238 -6.966367 5.201483 -12.594617 139.999924
11 139.999924 0.000000 -0.000238 -7.680999 6.621685 -12.046652 139.999924
[Rope4_Seg04]
10 139.999985 0.000000 0.000119 -4.642004 4.066988 -8.580763 139.999985
11 139.999985 0.000000 0.000119 -5.410030 6.609668 -8.834160 139.999985
[Rope4_Seg05]
10 139.999802 -0.000060 -0.000119 -4.446692 5.478758 -7.981741 139.999802
11 139.999802 -0.000060 -0.000119 -4.146590 6.453186 -7.518603 139.999802
[Rope4_Seg06]
10 139.999924 0.000000 0.000060 -11.969483 18.778509 -22.017891 139.999924
11 139.999924 0.000000 0.000060 -9.207352 16.691835 -18.581200 139.999924
[Rope4_Seg07]
10 139.999802 0.000000 0.000000 -10.404911 32.705444 -31.772190 139.999802
11 139.999802 0.000000 0.000000 -9.906665 31.618797 -31.603643 139.999802
[Rope4_Seg08]
10 139.999924 0.000000 0.000119 0.767287 13.149069 -10.854402 139.999924
11 139.999924 0.000000 0.000119 0.777533 14.101643 -11.954487 139.999924
[Rope4_Seg09]
10 90.185791 0.000060 0.000060 -135.617828 2.228885 0.850567 90.185791
11 90.185791 0.000060 0.000060 -135.617828 2.228885 0.850567 90.185791
[L_rear_hand01]
10 101.696655 -8.392275 -7.654577 -31.684452 -23.583012 144.025742 102.329041
11 101.696655 -8.392275 -7.654577 -31.684448 -23.583006 144.025742 102.329041
[L_rear_hand02]
10 102.726799 -1.568258 5.773216 82.701569 38.753960 171.553619 102.900848
11 102.726799 -1.568258 5.773216 82.701553 38.753956 171.553619 102.900848
[L_rear_hand03]
10 104.552910 9.721220 -10.420293 -163.975388 -19.004421 -142.009338 105.519653
11 104.552910 9.721220 -10.420293 -163.975403 -19.004421 -142.009338 105.519653
